<?xml version="1.0" encoding="utf-8"?>
<!-- Generator: Adobe Illustrator 28.1.0, SVG Export Plug-In . SVG Version: 6.00 Build 0)  -->
<svg version="1.1" id="Laag_1" xmlns="http://www.w3.org/2000/svg" xmlns:xlink="http://www.w3.org/1999/xlink" x="0px" y="0px"
	 viewBox="0 0 128 128" style="enable-background:new 0 0 128 128;" xml:space="preserve">
<style type="text/css">
	.st0{fill:#FF9CC0;}
</style>
<g>
	<path class="st0" d="M25.8,88.8c-0.8,0.4-1.6,0.7-2.4,1.1c-1.7,0.9-3.3,2-4.1,3.9c-0.9,2-0.1,3.3,2,3c1.8-0.2,3.7-0.7,5.4-1.4
		c6-2.4,11.8-5.3,17.2-8.9c5.4-3.7,10-8.3,14.6-12.9c1.1-1.1,2.1-2.3,3.2-3.3c2.9-2.4,3.7-5.9,5-9.2c2.5-6.5,5.1-12.9,8.7-18.9
		C80.1,34.7,85.7,28.1,93,23c4.8-3.3,9.5-6.7,14.3-10.1c1.5-1,1.9-1,3,0.5c4.3,5.6,6.9,11.9,8.3,18.8c0.4,2.1,0.6,4.3,1,6.4
		c0.7,4.1-0.8,7.6-3.2,10.8c-3.9,5.1-6.7,10.7-8.3,16.9c-1.9,6.9-3.3,13.9-3.6,21.1c-0.3,7.6-0.3,15.2-0.4,22.9c0,1.3,0,2.6,0,4
		c-0.1,0-0.2,0-0.3,0.1c-0.2-0.6-0.3-1.2-0.5-1.9c-1.9-8.1-3.1-16.3-2.8-24.7c0.3-8,0.5-16.1,3.2-23.8c1.4-4,3-7.9,4.6-11.8
		c2.3-5.2,4-10.5,3.8-16.2c-0.2-4-1.3-7.9-2.9-11.5c-0.5-1.1-1.1-1.2-2.1-0.7C97,28.5,89.4,35.8,83.9,45.1c-1.5,2.5-3,5.1-4.5,7.7
		c-0.2,0.4-0.4,0.8-0.6,1.3c0.1,0.1,0.2,0.2,0.3,0.4c0.6-0.2,1.1-0.5,1.7-0.7c3.4-1.4,6.7-3,10.2-4.2c3-1.1,6.1-1.3,9.2-0.1
		c5.2,2,6.1,5.8,1.9,9.6c-2.8,2.6-6,1.6-7.9-1.4c0-0.1,0-0.2,0.1-0.4c1.1,0.4,2.1,0.9,3.2,1.2c1.1,0.4,2.1,0.1,2.9-0.8
		c0.8-1,1.4-2.1,0.9-3.4c-0.5-1.2-1.7-1.8-2.9-1.6c-1.9,0.2-3.9,0.5-5.8,1.1c-4.9,1.7-8.8,5-12.6,8.3c-2,1.8-4,3.6-5.9,5.5
		c-0.5,0.5-0.9,1.1-1.1,1.8C71.2,76.1,70.2,83,70.4,90c0.1,4.2,0.3,8.3,0.2,12.5c0,3.4-0.6,6.8-3.8,8.6c-2.3,1.3-4.9,2.3-7.5,2.9
		c-7.5,1.8-15.1,2.4-22.7,1.2c-7.9-1.2-15.5-3.2-21.9-8.3c-2.1-1.7-4-3.9-5.9-5.8c-0.2-0.2-0.3-0.5-0.6-1.1c0.6,0.2,0.9,0.2,1.2,0.4
		c9.5,5.6,19.9,7.8,30.8,7.9c5.4,0.1,10.9,0,16.2-1.2c1.5-0.3,3-0.8,4.5-1.3c1.7-0.6,2.6-1.8,2.6-3.6c0-2.3-0.2-4.7-0.2-7
		c0-4.8,0-9.7,0-14.5c0-0.7-0.2-1.4-0.3-2c-0.5,0.3-1.2,0.6-1.6,1c-8.8,7.8-18.5,14.4-29.6,18.5c-4.2,1.6-8.5,3-13,3.1
		c-3.5,0.1-4.7-1.7-3.7-5.1C16.4,91.3,21.1,88.8,25.8,88.8z"/>
</g>
</svg>
